<mxfile host="app.diagrams.net" modified="2024-04-09T13:33:00.748Z" agent="Mozilla/5.0 (X11; Ubuntu; Linux x86_64; rv:124.0) Gecko/20100101 Firefox/124.0" etag="Fr0cpBN4yslyJ71jNFcx" version="24.2.3" type="github">
  <diagram name="Page-1" id="52a04d89-c75d-2922-d76d-85b35f80e030">
    <mxGraphModel dx="2440" dy="1356" grid="1" gridSize="10" guides="1" tooltips="1" connect="1" arrows="1" fold="1" page="1" pageScale="1" pageWidth="1100" pageHeight="850" background="none" math="0" shadow="0">
      <root>
        <mxCell id="0" />
        <mxCell id="1" parent="0" />
        <mxCell id="21ea969265ad0168-30" value="Raw data&lt;br&gt;repository" style="html=1;rounded=0;shadow=0;comic=0;labelBackgroundColor=none;strokeWidth=2;fontFamily=Verdana;fontSize=12;align=center;shape=mxgraph.ios7ui.horLines;" parent="1" vertex="1">
          <mxGeometry x="363" y="85" width="135" height="50" as="geometry" />
        </mxCell>
        <mxCell id="1fdf3b25b50cf41e-27" style="edgeStyle=none;html=1;labelBackgroundColor=none;startFill=0;startSize=8;endFill=1;endSize=8;fontFamily=Verdana;fontSize=12;" parent="1" source="17472293e6e8944d-30" target="WRyVgkNERUNQOaYfWy6F-25" edge="1">
          <mxGeometry relative="1" as="geometry">
            <mxPoint x="190" y="115" as="targetPoint" />
          </mxGeometry>
        </mxCell>
        <mxCell id="17472293e6e8944d-30" value="Sensor" style="whiteSpace=wrap;html=1;rounded=0;shadow=0;comic=0;labelBackgroundColor=none;strokeWidth=1;fontFamily=Verdana;fontSize=12;align=center;" parent="1" vertex="1">
          <mxGeometry x="30" y="85" width="120" height="50" as="geometry" />
        </mxCell>
        <mxCell id="1fdf3b25b50cf41e-38" style="edgeStyle=orthogonalEdgeStyle;html=1;labelBackgroundColor=none;startFill=0;startSize=8;endFill=1;endSize=8;fontFamily=Verdana;fontSize=12;exitX=1;exitY=0.5;exitDx=0;exitDy=0;" parent="1" source="WRyVgkNERUNQOaYfWy6F-28" target="21ea969265ad0168-30" edge="1">
          <mxGeometry relative="1" as="geometry">
            <Array as="points">
              <mxPoint x="330" y="220" />
              <mxPoint x="330" y="110" />
            </Array>
            <mxPoint x="290" y="245" as="sourcePoint" />
          </mxGeometry>
        </mxCell>
        <mxCell id="WRyVgkNERUNQOaYfWy6F-30" value="" style="edgeStyle=orthogonalEdgeStyle;rounded=1;orthogonalLoop=1;jettySize=auto;html=1;curved=0;" parent="1" source="WRyVgkNERUNQOaYfWy6F-25" target="WRyVgkNERUNQOaYfWy6F-29" edge="1">
          <mxGeometry relative="1" as="geometry">
            <mxPoint x="220" y="90" as="targetPoint" />
            <Array as="points">
              <mxPoint x="190" y="205" />
              <mxPoint x="190" y="110" />
            </Array>
          </mxGeometry>
        </mxCell>
        <mxCell id="WRyVgkNERUNQOaYfWy6F-25" value="IOT cloud" style="html=1;rounded=0;shadow=0;comic=0;labelBackgroundColor=none;strokeWidth=2;fontFamily=Verdana;fontSize=12;align=center;shape=mxgraph.ios7ui.horLines;" parent="1" vertex="1">
          <mxGeometry x="23" y="180" width="134" height="50" as="geometry" />
        </mxCell>
        <mxCell id="WRyVgkNERUNQOaYfWy6F-27" value="Level 2, 3,.. n&lt;br&gt;repository" style="html=1;rounded=0;shadow=0;comic=0;labelBackgroundColor=none;strokeWidth=2;fontFamily=Verdana;fontSize=12;align=center;shape=mxgraph.ios7ui.horLines;" parent="1" vertex="1">
          <mxGeometry x="533" y="85" width="135" height="50" as="geometry" />
        </mxCell>
        <mxCell id="WRyVgkNERUNQOaYfWy6F-28" value="&lt;div&gt;ISMAR&lt;/div&gt;&lt;div&gt;push API&lt;br&gt;&lt;/div&gt;" style="ellipse;whiteSpace=wrap;html=1;aspect=fixed;" parent="1" vertex="1">
          <mxGeometry x="220" y="180" width="80" height="80" as="geometry" />
        </mxCell>
        <mxCell id="WRyVgkNERUNQOaYfWy6F-29" value="Data forwarder" style="ellipse;whiteSpace=wrap;html=1;fontFamily=Verdana;rounded=0;shadow=0;comic=0;labelBackgroundColor=none;strokeWidth=2;" parent="1" vertex="1">
          <mxGeometry x="220" y="70" width="80" height="80" as="geometry" />
        </mxCell>
        <mxCell id="WRyVgkNERUNQOaYfWy6F-31" value="" style="edgeStyle=orthogonalEdgeStyle;rounded=1;orthogonalLoop=1;jettySize=auto;html=1;entryX=0.5;entryY=0;entryDx=0;entryDy=0;curved=0;exitX=0.5;exitY=1;exitDx=0;exitDy=0;" parent="1" source="WRyVgkNERUNQOaYfWy6F-29" target="WRyVgkNERUNQOaYfWy6F-28" edge="1">
          <mxGeometry relative="1" as="geometry">
            <mxPoint x="240" y="165" as="sourcePoint" />
            <mxPoint x="283" y="125" as="targetPoint" />
          </mxGeometry>
        </mxCell>
        <mxCell id="WRyVgkNERUNQOaYfWy6F-32" style="edgeStyle=orthogonalEdgeStyle;html=1;labelBackgroundColor=none;startFill=0;startSize=8;endFill=1;endSize=8;fontFamily=Verdana;fontSize=12;exitX=0.495;exitY=1.036;exitDx=0;exitDy=0;entryX=0;entryY=0.5;entryDx=0;entryDy=0;exitPerimeter=0;" parent="1" source="21ea969265ad0168-30" target="WRyVgkNERUNQOaYfWy6F-33" edge="1">
          <mxGeometry relative="1" as="geometry">
            <mxPoint x="332" y="283" as="sourcePoint" />
            <mxPoint x="380" y="325" as="targetPoint" />
          </mxGeometry>
        </mxCell>
        <mxCell id="WRyVgkNERUNQOaYfWy6F-35" value="" style="edgeStyle=orthogonalEdgeStyle;rounded=1;orthogonalLoop=1;jettySize=auto;html=1;entryX=0.479;entryY=1.086;entryDx=0;entryDy=0;entryPerimeter=0;curved=0;exitX=1;exitY=0.5;exitDx=0;exitDy=0;" parent="1" source="WRyVgkNERUNQOaYfWy6F-33" target="WRyVgkNERUNQOaYfWy6F-27" edge="1">
          <mxGeometry relative="1" as="geometry">
            <mxPoint x="610" y="245" as="targetPoint" />
          </mxGeometry>
        </mxCell>
        <mxCell id="WRyVgkNERUNQOaYfWy6F-33" value="data processing" style="ellipse;whiteSpace=wrap;html=1;aspect=fixed;" parent="1" vertex="1">
          <mxGeometry x="470" y="180" width="80" height="80" as="geometry" />
        </mxCell>
        <mxCell id="WRyVgkNERUNQOaYfWy6F-36" value="NRT data trough IOT Cloud " style="text;html=1;align=left;verticalAlign=middle;whiteSpace=wrap;rounded=0;" parent="1" vertex="1">
          <mxGeometry x="60" y="20" width="260" height="30" as="geometry" />
        </mxCell>
        <mxCell id="WRyVgkNERUNQOaYfWy6F-37" value="&lt;div&gt;NRT data direct connected sensors&lt;/div&gt;" style="text;html=1;align=center;verticalAlign=middle;whiteSpace=wrap;rounded=0;" parent="1" vertex="1">
          <mxGeometry x="23" y="292" width="260" height="30" as="geometry" />
        </mxCell>
        <mxCell id="WRyVgkNERUNQOaYfWy6F-38" value="&lt;div&gt;NRT data network connected sensors&lt;/div&gt;" style="text;html=1;align=center;verticalAlign=middle;whiteSpace=wrap;rounded=0;" parent="1" vertex="1">
          <mxGeometry x="30" y="584" width="260" height="30" as="geometry" />
        </mxCell>
        <mxCell id="WRyVgkNERUNQOaYfWy6F-39" value="&lt;div&gt;ERDDAP ISMAR Endpoint&lt;/div&gt;" style="whiteSpace=wrap;html=1;rounded=0;shadow=0;comic=0;labelBackgroundColor=none;strokeWidth=1;fontFamily=Verdana;fontSize=12;align=center;flipV=0;" parent="1" vertex="1">
          <mxGeometry x="710" y="85" width="120" height="50" as="geometry" />
        </mxCell>
        <mxCell id="WRyVgkNERUNQOaYfWy6F-40" value="" style="edgeStyle=orthogonalEdgeStyle;rounded=1;orthogonalLoop=1;jettySize=auto;html=1;entryX=0;entryY=0.5;entryDx=0;entryDy=0;curved=0;" parent="1" source="WRyVgkNERUNQOaYfWy6F-27" target="WRyVgkNERUNQOaYfWy6F-39" edge="1">
          <mxGeometry relative="1" as="geometry">
            <mxPoint x="563" y="255" as="sourcePoint" />
            <mxPoint x="605" y="149" as="targetPoint" />
          </mxGeometry>
        </mxCell>
        <mxCell id="WRyVgkNERUNQOaYfWy6F-41" value="" style="edgeStyle=orthogonalEdgeStyle;rounded=1;orthogonalLoop=1;jettySize=auto;html=1;entryX=0.5;entryY=0;entryDx=0;entryDy=0;curved=0;exitX=0.5;exitY=1;exitDx=0;exitDy=0;" parent="1" source="WRyVgkNERUNQOaYfWy6F-39" target="WRyVgkNERUNQOaYfWy6F-42" edge="1">
          <mxGeometry relative="1" as="geometry">
            <mxPoint x="675" y="120" as="sourcePoint" />
            <mxPoint x="770" y="205" as="targetPoint" />
          </mxGeometry>
        </mxCell>
        <mxCell id="WRyVgkNERUNQOaYfWy6F-42" value="Output Data check" style="ellipse;whiteSpace=wrap;html=1;aspect=fixed;flipV=0;" parent="1" vertex="1">
          <mxGeometry x="730" y="180" width="80" height="80" as="geometry" />
        </mxCell>
        <mxCell id="WRyVgkNERUNQOaYfWy6F-43" value="" style="edgeStyle=orthogonalEdgeStyle;rounded=1;orthogonalLoop=1;jettySize=auto;html=1;curved=0;exitX=1;exitY=0.5;exitDx=0;exitDy=0;entryX=1;entryY=0.5;entryDx=0;entryDy=0;" parent="1" source="WRyVgkNERUNQOaYfWy6F-42" target="WRyVgkNERUNQOaYfWy6F-39" edge="1">
          <mxGeometry relative="1" as="geometry">
            <mxPoint x="780" y="145" as="sourcePoint" />
            <mxPoint x="850" y="190" as="targetPoint" />
            <Array as="points">
              <mxPoint x="860" y="220" />
              <mxPoint x="860" y="110" />
            </Array>
          </mxGeometry>
        </mxCell>
        <mxCell id="WRyVgkNERUNQOaYfWy6F-44" value="" style="edgeStyle=orthogonalEdgeStyle;rounded=1;orthogonalLoop=1;jettySize=auto;html=1;curved=0;exitX=1;exitY=0.5;exitDx=0;exitDy=0;entryX=0.5;entryY=0;entryDx=0;entryDy=0;" parent="1" source="WRyVgkNERUNQOaYfWy6F-42" target="WRyVgkNERUNQOaYfWy6F-45" edge="1">
          <mxGeometry relative="1" as="geometry">
            <mxPoint x="830" y="145" as="sourcePoint" />
            <mxPoint x="840" y="300" as="targetPoint" />
            <Array as="points">
              <mxPoint x="880" y="220" />
              <mxPoint x="880" y="115" />
              <mxPoint x="970" y="115" />
            </Array>
          </mxGeometry>
        </mxCell>
        <mxCell id="WRyVgkNERUNQOaYfWy6F-45" value="&lt;div&gt;Marine Data store&lt;/div&gt;" style="whiteSpace=wrap;html=1;rounded=0;shadow=0;comic=0;labelBackgroundColor=none;strokeWidth=1;fontFamily=Verdana;fontSize=12;align=center;flipV=0;" parent="1" vertex="1">
          <mxGeometry x="910" y="135" width="120" height="50" as="geometry" />
        </mxCell>
        <mxCell id="WRyVgkNERUNQOaYfWy6F-46" value="Raw data&lt;br&gt;repository" style="html=1;rounded=0;shadow=0;comic=0;labelBackgroundColor=none;strokeWidth=2;fontFamily=Verdana;fontSize=12;align=center;shape=mxgraph.ios7ui.horLines;" parent="1" vertex="1">
          <mxGeometry x="356" y="366" width="135" height="50" as="geometry" />
        </mxCell>
        <mxCell id="WRyVgkNERUNQOaYfWy6F-47" style="edgeStyle=none;html=1;labelBackgroundColor=none;startFill=0;startSize=8;endFill=1;endSize=8;fontFamily=Verdana;fontSize=12;entryX=0;entryY=0.5;entryDx=0;entryDy=0;" parent="1" source="WRyVgkNERUNQOaYfWy6F-48" target="WRyVgkNERUNQOaYfWy6F-54" edge="1">
          <mxGeometry relative="1" as="geometry">
            <mxPoint x="101.99000000000001" y="461" as="targetPoint" />
          </mxGeometry>
        </mxCell>
        <mxCell id="WRyVgkNERUNQOaYfWy6F-48" value="Sensor" style="whiteSpace=wrap;html=1;rounded=0;shadow=0;comic=0;labelBackgroundColor=none;strokeWidth=1;fontFamily=Verdana;fontSize=12;align=center;" parent="1" vertex="1">
          <mxGeometry x="23.000000000000004" y="366" width="120" height="50" as="geometry" />
        </mxCell>
        <mxCell id="WRyVgkNERUNQOaYfWy6F-52" value="Level 2, 3,.. n&lt;br&gt;repository" style="html=1;rounded=0;shadow=0;comic=0;labelBackgroundColor=none;strokeWidth=2;fontFamily=Verdana;fontSize=12;align=center;shape=mxgraph.ios7ui.horLines;" parent="1" vertex="1">
          <mxGeometry x="526" y="366" width="135" height="50" as="geometry" />
        </mxCell>
        <mxCell id="WRyVgkNERUNQOaYfWy6F-54" value="Management software" style="ellipse;whiteSpace=wrap;html=1;fontFamily=Verdana;rounded=0;shadow=0;comic=0;labelBackgroundColor=none;strokeWidth=2;" parent="1" vertex="1">
          <mxGeometry x="193" y="351" width="80" height="80" as="geometry" />
        </mxCell>
        <mxCell id="WRyVgkNERUNQOaYfWy6F-55" value="" style="edgeStyle=orthogonalEdgeStyle;rounded=1;orthogonalLoop=1;jettySize=auto;html=1;curved=0;exitX=1;exitY=0.5;exitDx=0;exitDy=0;" parent="1" source="WRyVgkNERUNQOaYfWy6F-75" target="WRyVgkNERUNQOaYfWy6F-46" edge="1">
          <mxGeometry relative="1" as="geometry">
            <mxPoint x="373" y="391" as="sourcePoint" />
            <mxPoint x="321.99" y="461" as="targetPoint" />
            <Array as="points">
              <mxPoint x="333" y="501" />
              <mxPoint x="333" y="391" />
            </Array>
          </mxGeometry>
        </mxCell>
        <mxCell id="WRyVgkNERUNQOaYfWy6F-56" style="edgeStyle=orthogonalEdgeStyle;html=1;labelBackgroundColor=none;startFill=0;startSize=8;endFill=1;endSize=8;fontFamily=Verdana;fontSize=12;exitX=0.495;exitY=1.036;exitDx=0;exitDy=0;entryX=0;entryY=0.5;entryDx=0;entryDy=0;exitPerimeter=0;" parent="1" source="WRyVgkNERUNQOaYfWy6F-46" target="WRyVgkNERUNQOaYfWy6F-58" edge="1">
          <mxGeometry relative="1" as="geometry">
            <mxPoint x="393.99" y="564" as="sourcePoint" />
            <mxPoint x="441.99" y="606" as="targetPoint" />
          </mxGeometry>
        </mxCell>
        <mxCell id="WRyVgkNERUNQOaYfWy6F-57" value="" style="edgeStyle=orthogonalEdgeStyle;rounded=1;orthogonalLoop=1;jettySize=auto;html=1;entryX=0.479;entryY=1.086;entryDx=0;entryDy=0;entryPerimeter=0;curved=0;exitX=1;exitY=0.5;exitDx=0;exitDy=0;" parent="1" source="WRyVgkNERUNQOaYfWy6F-58" target="WRyVgkNERUNQOaYfWy6F-52" edge="1">
          <mxGeometry relative="1" as="geometry">
            <mxPoint x="671.99" y="526" as="targetPoint" />
          </mxGeometry>
        </mxCell>
        <mxCell id="WRyVgkNERUNQOaYfWy6F-58" value="data processing" style="ellipse;whiteSpace=wrap;html=1;aspect=fixed;" parent="1" vertex="1">
          <mxGeometry x="463" y="461" width="80" height="80" as="geometry" />
        </mxCell>
        <mxCell id="WRyVgkNERUNQOaYfWy6F-59" value="&lt;div&gt;ERDDAP ISMAR Endpoint&lt;/div&gt;" style="whiteSpace=wrap;html=1;rounded=0;shadow=0;comic=0;labelBackgroundColor=none;strokeWidth=1;fontFamily=Verdana;fontSize=12;align=center;" parent="1" vertex="1">
          <mxGeometry x="703" y="366" width="120" height="50" as="geometry" />
        </mxCell>
        <mxCell id="WRyVgkNERUNQOaYfWy6F-60" value="" style="edgeStyle=orthogonalEdgeStyle;rounded=1;orthogonalLoop=1;jettySize=auto;html=1;entryX=0;entryY=0.5;entryDx=0;entryDy=0;curved=0;" parent="1" source="WRyVgkNERUNQOaYfWy6F-52" target="WRyVgkNERUNQOaYfWy6F-59" edge="1">
          <mxGeometry relative="1" as="geometry">
            <mxPoint x="624.99" y="536" as="sourcePoint" />
            <mxPoint x="666.99" y="430" as="targetPoint" />
          </mxGeometry>
        </mxCell>
        <mxCell id="WRyVgkNERUNQOaYfWy6F-70" value="" style="edgeStyle=orthogonalEdgeStyle;rounded=1;orthogonalLoop=1;jettySize=auto;html=1;entryX=0.5;entryY=0;entryDx=0;entryDy=0;curved=0;exitX=0.5;exitY=1;exitDx=0;exitDy=0;" parent="1" source="WRyVgkNERUNQOaYfWy6F-59" target="WRyVgkNERUNQOaYfWy6F-71" edge="1">
          <mxGeometry relative="1" as="geometry">
            <mxPoint x="783" y="426" as="sourcePoint" />
            <mxPoint x="783" y="496" as="targetPoint" />
          </mxGeometry>
        </mxCell>
        <mxCell id="WRyVgkNERUNQOaYfWy6F-71" value="Output Data check" style="ellipse;whiteSpace=wrap;html=1;aspect=fixed;flipV=0;" parent="1" vertex="1">
          <mxGeometry x="723" y="461" width="80" height="80" as="geometry" />
        </mxCell>
        <mxCell id="WRyVgkNERUNQOaYfWy6F-72" value="" style="edgeStyle=orthogonalEdgeStyle;rounded=1;orthogonalLoop=1;jettySize=auto;html=1;curved=0;exitX=1;exitY=0.5;exitDx=0;exitDy=0;entryX=1;entryY=0.5;entryDx=0;entryDy=0;" parent="1" source="WRyVgkNERUNQOaYfWy6F-71" target="WRyVgkNERUNQOaYfWy6F-59" edge="1">
          <mxGeometry relative="1" as="geometry">
            <mxPoint x="793" y="436" as="sourcePoint" />
            <mxPoint x="843" y="401" as="targetPoint" />
            <Array as="points">
              <mxPoint x="843" y="501" />
              <mxPoint x="843" y="391" />
            </Array>
          </mxGeometry>
        </mxCell>
        <mxCell id="WRyVgkNERUNQOaYfWy6F-73" value="" style="edgeStyle=orthogonalEdgeStyle;rounded=1;orthogonalLoop=1;jettySize=auto;html=1;curved=0;exitX=1;exitY=0.5;exitDx=0;exitDy=0;entryX=0.5;entryY=0;entryDx=0;entryDy=0;" parent="1" source="WRyVgkNERUNQOaYfWy6F-71" target="WRyVgkNERUNQOaYfWy6F-74" edge="1">
          <mxGeometry relative="1" as="geometry">
            <mxPoint x="823" y="426" as="sourcePoint" />
            <mxPoint x="833" y="581" as="targetPoint" />
            <Array as="points">
              <mxPoint x="863" y="501" />
              <mxPoint x="863" y="396" />
              <mxPoint x="963" y="396" />
            </Array>
          </mxGeometry>
        </mxCell>
        <mxCell id="WRyVgkNERUNQOaYfWy6F-74" value="&lt;div&gt;Marine Data store&lt;/div&gt;" style="whiteSpace=wrap;html=1;rounded=0;shadow=0;comic=0;labelBackgroundColor=none;strokeWidth=1;fontFamily=Verdana;fontSize=12;align=center;flipV=0;" parent="1" vertex="1">
          <mxGeometry x="903" y="416" width="120" height="50" as="geometry" />
        </mxCell>
        <mxCell id="WRyVgkNERUNQOaYfWy6F-75" value="ETL&lt;br&gt; Cronjob" style="ellipse;whiteSpace=wrap;html=1;fontFamily=Verdana;rounded=0;shadow=0;comic=0;labelBackgroundColor=none;strokeWidth=2;" parent="1" vertex="1">
          <mxGeometry x="193" y="461" width="80" height="80" as="geometry" />
        </mxCell>
        <mxCell id="WRyVgkNERUNQOaYfWy6F-76" value="" style="edgeStyle=orthogonalEdgeStyle;rounded=1;orthogonalLoop=1;jettySize=auto;html=1;curved=0;exitX=0.5;exitY=1;exitDx=0;exitDy=0;entryX=0.5;entryY=0;entryDx=0;entryDy=0;" parent="1" source="WRyVgkNERUNQOaYfWy6F-54" target="WRyVgkNERUNQOaYfWy6F-75" edge="1">
          <mxGeometry relative="1" as="geometry">
            <mxPoint x="283" y="401" as="sourcePoint" />
            <mxPoint x="366" y="401" as="targetPoint" />
          </mxGeometry>
        </mxCell>
        <mxCell id="WRyVgkNERUNQOaYfWy6F-78" value="Raw data&lt;br&gt;repository" style="html=1;rounded=0;shadow=0;comic=0;labelBackgroundColor=none;strokeWidth=2;fontFamily=Verdana;fontSize=12;align=center;shape=mxgraph.ios7ui.horLines;" parent="1" vertex="1">
          <mxGeometry x="363" y="645" width="135" height="50" as="geometry" />
        </mxCell>
        <mxCell id="WRyVgkNERUNQOaYfWy6F-79" style="edgeStyle=none;html=1;labelBackgroundColor=none;startFill=0;startSize=8;endFill=1;endSize=8;fontFamily=Verdana;fontSize=12;entryX=0;entryY=0.5;entryDx=0;entryDy=0;" parent="1" source="WRyVgkNERUNQOaYfWy6F-80" target="WRyVgkNERUNQOaYfWy6F-82" edge="1">
          <mxGeometry relative="1" as="geometry">
            <mxPoint x="108.99000000000001" y="740" as="targetPoint" />
          </mxGeometry>
        </mxCell>
        <mxCell id="WRyVgkNERUNQOaYfWy6F-80" value="Sensor" style="whiteSpace=wrap;html=1;rounded=0;shadow=0;comic=0;labelBackgroundColor=none;strokeWidth=1;fontFamily=Verdana;fontSize=12;align=center;" parent="1" vertex="1">
          <mxGeometry x="30" y="645" width="120" height="50" as="geometry" />
        </mxCell>
        <mxCell id="WRyVgkNERUNQOaYfWy6F-81" value="Level 2, 3,.. n&lt;br&gt;repository" style="html=1;rounded=0;shadow=0;comic=0;labelBackgroundColor=none;strokeWidth=2;fontFamily=Verdana;fontSize=12;align=center;shape=mxgraph.ios7ui.horLines;" parent="1" vertex="1">
          <mxGeometry x="533" y="645" width="135" height="50" as="geometry" />
        </mxCell>
        <mxCell id="WRyVgkNERUNQOaYfWy6F-82" value="Network API" style="ellipse;whiteSpace=wrap;html=1;fontFamily=Verdana;rounded=0;shadow=0;comic=0;labelBackgroundColor=none;strokeWidth=2;" parent="1" vertex="1">
          <mxGeometry x="200" y="630" width="80" height="80" as="geometry" />
        </mxCell>
        <mxCell id="WRyVgkNERUNQOaYfWy6F-83" value="" style="edgeStyle=orthogonalEdgeStyle;rounded=1;orthogonalLoop=1;jettySize=auto;html=1;curved=0;exitX=1;exitY=0.5;exitDx=0;exitDy=0;" parent="1" source="WRyVgkNERUNQOaYfWy6F-82" target="WRyVgkNERUNQOaYfWy6F-78" edge="1">
          <mxGeometry relative="1" as="geometry">
            <mxPoint x="380" y="670" as="sourcePoint" />
            <mxPoint x="328.99" y="740" as="targetPoint" />
          </mxGeometry>
        </mxCell>
        <mxCell id="WRyVgkNERUNQOaYfWy6F-84" style="edgeStyle=orthogonalEdgeStyle;html=1;labelBackgroundColor=none;startFill=0;startSize=8;endFill=1;endSize=8;fontFamily=Verdana;fontSize=12;exitX=0.495;exitY=1.036;exitDx=0;exitDy=0;entryX=0;entryY=0.5;entryDx=0;entryDy=0;exitPerimeter=0;" parent="1" source="WRyVgkNERUNQOaYfWy6F-78" target="WRyVgkNERUNQOaYfWy6F-86" edge="1">
          <mxGeometry relative="1" as="geometry">
            <mxPoint x="400.99" y="843" as="sourcePoint" />
            <mxPoint x="448.99" y="885" as="targetPoint" />
          </mxGeometry>
        </mxCell>
        <mxCell id="WRyVgkNERUNQOaYfWy6F-85" value="" style="edgeStyle=orthogonalEdgeStyle;rounded=1;orthogonalLoop=1;jettySize=auto;html=1;entryX=0.479;entryY=1.086;entryDx=0;entryDy=0;entryPerimeter=0;curved=0;exitX=1;exitY=0.5;exitDx=0;exitDy=0;" parent="1" source="WRyVgkNERUNQOaYfWy6F-86" target="WRyVgkNERUNQOaYfWy6F-81" edge="1">
          <mxGeometry relative="1" as="geometry">
            <mxPoint x="678.99" y="805" as="targetPoint" />
          </mxGeometry>
        </mxCell>
        <mxCell id="WRyVgkNERUNQOaYfWy6F-86" value="data processing" style="ellipse;whiteSpace=wrap;html=1;aspect=fixed;" parent="1" vertex="1">
          <mxGeometry x="470" y="740" width="80" height="80" as="geometry" />
        </mxCell>
        <mxCell id="WRyVgkNERUNQOaYfWy6F-87" value="&lt;div&gt;ERDDAP ISMAR Endpoint&lt;/div&gt;" style="whiteSpace=wrap;html=1;rounded=0;shadow=0;comic=0;labelBackgroundColor=none;strokeWidth=1;fontFamily=Verdana;fontSize=12;align=center;" parent="1" vertex="1">
          <mxGeometry x="710" y="645" width="120" height="50" as="geometry" />
        </mxCell>
        <mxCell id="WRyVgkNERUNQOaYfWy6F-88" value="" style="edgeStyle=orthogonalEdgeStyle;rounded=1;orthogonalLoop=1;jettySize=auto;html=1;entryX=0;entryY=0.5;entryDx=0;entryDy=0;curved=0;" parent="1" source="WRyVgkNERUNQOaYfWy6F-81" target="WRyVgkNERUNQOaYfWy6F-87" edge="1">
          <mxGeometry relative="1" as="geometry">
            <mxPoint x="631.99" y="815" as="sourcePoint" />
            <mxPoint x="673.99" y="709" as="targetPoint" />
          </mxGeometry>
        </mxCell>
        <mxCell id="WRyVgkNERUNQOaYfWy6F-89" value="" style="edgeStyle=orthogonalEdgeStyle;rounded=1;orthogonalLoop=1;jettySize=auto;html=1;entryX=0.5;entryY=0;entryDx=0;entryDy=0;curved=0;exitX=0.5;exitY=1;exitDx=0;exitDy=0;" parent="1" source="WRyVgkNERUNQOaYfWy6F-87" target="WRyVgkNERUNQOaYfWy6F-90" edge="1">
          <mxGeometry relative="1" as="geometry">
            <mxPoint x="790" y="705" as="sourcePoint" />
            <mxPoint x="790" y="775" as="targetPoint" />
          </mxGeometry>
        </mxCell>
        <mxCell id="WRyVgkNERUNQOaYfWy6F-90" value="Output Data check" style="ellipse;whiteSpace=wrap;html=1;aspect=fixed;flipV=0;" parent="1" vertex="1">
          <mxGeometry x="730" y="740" width="80" height="80" as="geometry" />
        </mxCell>
        <mxCell id="WRyVgkNERUNQOaYfWy6F-91" value="" style="edgeStyle=orthogonalEdgeStyle;rounded=1;orthogonalLoop=1;jettySize=auto;html=1;curved=0;exitX=1;exitY=0.5;exitDx=0;exitDy=0;entryX=1;entryY=0.5;entryDx=0;entryDy=0;" parent="1" source="WRyVgkNERUNQOaYfWy6F-90" target="WRyVgkNERUNQOaYfWy6F-87" edge="1">
          <mxGeometry relative="1" as="geometry">
            <mxPoint x="800" y="715" as="sourcePoint" />
            <mxPoint x="850" y="680" as="targetPoint" />
            <Array as="points">
              <mxPoint x="850" y="780" />
              <mxPoint x="850" y="670" />
            </Array>
          </mxGeometry>
        </mxCell>
        <mxCell id="WRyVgkNERUNQOaYfWy6F-92" value="" style="edgeStyle=orthogonalEdgeStyle;rounded=1;orthogonalLoop=1;jettySize=auto;html=1;curved=0;exitX=1;exitY=0.5;exitDx=0;exitDy=0;entryX=0.5;entryY=0;entryDx=0;entryDy=0;" parent="1" source="WRyVgkNERUNQOaYfWy6F-90" target="WRyVgkNERUNQOaYfWy6F-93" edge="1">
          <mxGeometry relative="1" as="geometry">
            <mxPoint x="830" y="705" as="sourcePoint" />
            <mxPoint x="840" y="860" as="targetPoint" />
            <Array as="points">
              <mxPoint x="870" y="780" />
              <mxPoint x="870" y="675" />
              <mxPoint x="970" y="675" />
            </Array>
          </mxGeometry>
        </mxCell>
        <mxCell id="WRyVgkNERUNQOaYfWy6F-93" value="&lt;div&gt;Marine Data store&lt;/div&gt;" style="whiteSpace=wrap;html=1;rounded=0;shadow=0;comic=0;labelBackgroundColor=none;strokeWidth=1;fontFamily=Verdana;fontSize=12;align=center;flipV=0;" parent="1" vertex="1">
          <mxGeometry x="910" y="695" width="120" height="50" as="geometry" />
        </mxCell>
        <mxCell id="WRyVgkNERUNQOaYfWy6F-97" value="&lt;div&gt;DM data (field, lab or product)&lt;/div&gt;" style="text;html=1;align=center;verticalAlign=middle;whiteSpace=wrap;rounded=0;" parent="1" vertex="1">
          <mxGeometry x="37" y="1173" width="260" height="30" as="geometry" />
        </mxCell>
        <mxCell id="WRyVgkNERUNQOaYfWy6F-99" style="edgeStyle=orthogonalEdgeStyle;html=1;labelBackgroundColor=none;startFill=0;startSize=8;endFill=1;endSize=8;fontFamily=Verdana;fontSize=12;entryX=0;entryY=0.5;entryDx=0;entryDy=0;" parent="1" source="WRyVgkNERUNQOaYfWy6F-100" target="WRyVgkNERUNQOaYfWy6F-114" edge="1">
          <mxGeometry relative="1" as="geometry">
            <mxPoint x="227" y="1308" as="targetPoint" />
          </mxGeometry>
        </mxCell>
        <mxCell id="WRyVgkNERUNQOaYfWy6F-100" value="Data Producer" style="whiteSpace=wrap;html=1;rounded=0;shadow=0;comic=0;labelBackgroundColor=none;strokeWidth=1;fontFamily=Verdana;fontSize=12;align=center;" parent="1" vertex="1">
          <mxGeometry x="44" y="1373" width="120" height="50" as="geometry" />
        </mxCell>
        <mxCell id="WRyVgkNERUNQOaYfWy6F-101" value="Level 2, 3,.. n&lt;br&gt;repository" style="html=1;rounded=0;shadow=0;comic=0;labelBackgroundColor=none;strokeWidth=2;fontFamily=Verdana;fontSize=12;align=center;shape=mxgraph.ios7ui.horLines;" parent="1" vertex="1">
          <mxGeometry x="357" y="1283" width="135" height="50" as="geometry" />
        </mxCell>
        <mxCell id="WRyVgkNERUNQOaYfWy6F-107" value="&lt;div&gt;ERDDAP ISMAR Endpoint&lt;/div&gt;" style="whiteSpace=wrap;html=1;rounded=0;shadow=0;comic=0;labelBackgroundColor=none;strokeWidth=1;fontFamily=Verdana;fontSize=12;align=center;" parent="1" vertex="1">
          <mxGeometry x="555" y="1283" width="120" height="50" as="geometry" />
        </mxCell>
        <mxCell id="WRyVgkNERUNQOaYfWy6F-108" value="" style="edgeStyle=orthogonalEdgeStyle;rounded=1;orthogonalLoop=1;jettySize=auto;html=1;entryX=0;entryY=0.5;entryDx=0;entryDy=0;curved=0;" parent="1" source="WRyVgkNERUNQOaYfWy6F-101" target="WRyVgkNERUNQOaYfWy6F-107" edge="1">
          <mxGeometry relative="1" as="geometry">
            <mxPoint x="645.99" y="1453" as="sourcePoint" />
            <mxPoint x="687.99" y="1347" as="targetPoint" />
          </mxGeometry>
        </mxCell>
        <mxCell id="WRyVgkNERUNQOaYfWy6F-109" value="" style="edgeStyle=orthogonalEdgeStyle;rounded=1;orthogonalLoop=1;jettySize=auto;html=1;entryX=0.5;entryY=0;entryDx=0;entryDy=0;curved=0;exitX=0.5;exitY=1;exitDx=0;exitDy=0;" parent="1" source="WRyVgkNERUNQOaYfWy6F-107" target="WRyVgkNERUNQOaYfWy6F-110" edge="1">
          <mxGeometry relative="1" as="geometry">
            <mxPoint x="804" y="1343" as="sourcePoint" />
            <mxPoint x="804" y="1413" as="targetPoint" />
          </mxGeometry>
        </mxCell>
        <mxCell id="WRyVgkNERUNQOaYfWy6F-110" value="Output Data check" style="ellipse;whiteSpace=wrap;html=1;aspect=fixed;flipV=0;" parent="1" vertex="1">
          <mxGeometry x="575" y="1358" width="80" height="80" as="geometry" />
        </mxCell>
        <mxCell id="WRyVgkNERUNQOaYfWy6F-111" value="" style="edgeStyle=orthogonalEdgeStyle;rounded=1;orthogonalLoop=1;jettySize=auto;html=1;curved=0;exitX=1;exitY=0.5;exitDx=0;exitDy=0;entryX=1;entryY=0.5;entryDx=0;entryDy=0;" parent="1" source="WRyVgkNERUNQOaYfWy6F-110" target="WRyVgkNERUNQOaYfWy6F-107" edge="1">
          <mxGeometry relative="1" as="geometry">
            <mxPoint x="814" y="1353" as="sourcePoint" />
            <mxPoint x="864" y="1318" as="targetPoint" />
            <Array as="points">
              <mxPoint x="697" y="1398" />
              <mxPoint x="697" y="1308" />
            </Array>
          </mxGeometry>
        </mxCell>
        <mxCell id="WRyVgkNERUNQOaYfWy6F-112" value="" style="edgeStyle=orthogonalEdgeStyle;rounded=1;orthogonalLoop=1;jettySize=auto;html=1;curved=0;exitX=1;exitY=0.5;exitDx=0;exitDy=0;entryX=0;entryY=0.5;entryDx=0;entryDy=0;" parent="1" source="WRyVgkNERUNQOaYfWy6F-110" target="WRyVgkNERUNQOaYfWy6F-113" edge="1">
          <mxGeometry relative="1" as="geometry">
            <mxPoint x="844" y="1343" as="sourcePoint" />
            <mxPoint x="854" y="1498" as="targetPoint" />
            <Array as="points">
              <mxPoint x="747" y="1398" />
              <mxPoint x="747" y="1308" />
            </Array>
          </mxGeometry>
        </mxCell>
        <mxCell id="WRyVgkNERUNQOaYfWy6F-113" value="&lt;div&gt;Marine Data store&lt;/div&gt;" style="whiteSpace=wrap;html=1;rounded=0;shadow=0;comic=0;labelBackgroundColor=none;strokeWidth=1;fontFamily=Verdana;fontSize=12;align=center;flipV=0;" parent="1" vertex="1">
          <mxGeometry x="787" y="1283" width="120" height="50" as="geometry" />
        </mxCell>
        <mxCell id="WRyVgkNERUNQOaYfWy6F-114" value="data processing" style="ellipse;whiteSpace=wrap;html=1;aspect=fixed;" parent="1" vertex="1">
          <mxGeometry x="237" y="1268" width="80" height="80" as="geometry" />
        </mxCell>
        <mxCell id="WRyVgkNERUNQOaYfWy6F-115" style="edgeStyle=none;html=1;labelBackgroundColor=none;startFill=0;startSize=8;endFill=1;endSize=8;fontFamily=Verdana;fontSize=12;entryX=-0.01;entryY=0.509;entryDx=0;entryDy=0;exitX=1;exitY=0.5;exitDx=0;exitDy=0;entryPerimeter=0;" parent="1" source="WRyVgkNERUNQOaYfWy6F-114" target="WRyVgkNERUNQOaYfWy6F-101" edge="1">
          <mxGeometry relative="1" as="geometry">
            <mxPoint x="400" y="1383" as="targetPoint" />
            <mxPoint x="327" y="1383" as="sourcePoint" />
          </mxGeometry>
        </mxCell>
        <mxCell id="_X_2YBjXSHw5JZLLoyV5-1" value="&lt;div&gt;NRT data&amp;nbsp; from sensors&lt;/div&gt;" style="text;html=1;align=center;verticalAlign=middle;whiteSpace=wrap;rounded=0;" vertex="1" parent="1">
          <mxGeometry x="40" y="880" width="260" height="30" as="geometry" />
        </mxCell>
        <mxCell id="_X_2YBjXSHw5JZLLoyV5-2" value="Raw data&lt;br&gt;repository" style="html=1;rounded=0;shadow=0;comic=0;labelBackgroundColor=none;strokeWidth=2;fontFamily=Verdana;fontSize=12;align=center;shape=mxgraph.ios7ui.horLines;" vertex="1" parent="1">
          <mxGeometry x="370" y="955" width="135" height="50" as="geometry" />
        </mxCell>
        <mxCell id="_X_2YBjXSHw5JZLLoyV5-3" style="edgeStyle=none;html=1;labelBackgroundColor=none;startFill=0;startSize=8;endFill=1;endSize=8;fontFamily=Verdana;fontSize=12;entryX=0;entryY=0.5;entryDx=0;entryDy=0;" edge="1" parent="1" source="_X_2YBjXSHw5JZLLoyV5-4" target="_X_2YBjXSHw5JZLLoyV5-6">
          <mxGeometry relative="1" as="geometry">
            <mxPoint x="115.99000000000001" y="1050" as="targetPoint" />
          </mxGeometry>
        </mxCell>
        <mxCell id="_X_2YBjXSHw5JZLLoyV5-4" value="Sensor" style="whiteSpace=wrap;html=1;rounded=0;shadow=0;comic=0;labelBackgroundColor=none;strokeWidth=1;fontFamily=Verdana;fontSize=12;align=center;" vertex="1" parent="1">
          <mxGeometry x="37" y="955" width="120" height="50" as="geometry" />
        </mxCell>
        <mxCell id="_X_2YBjXSHw5JZLLoyV5-5" value="Level 2, 3,.. n&lt;br&gt;repository" style="html=1;rounded=0;shadow=0;comic=0;labelBackgroundColor=none;strokeWidth=2;fontFamily=Verdana;fontSize=12;align=center;shape=mxgraph.ios7ui.horLines;" vertex="1" parent="1">
          <mxGeometry x="540" y="955" width="135" height="50" as="geometry" />
        </mxCell>
        <mxCell id="_X_2YBjXSHw5JZLLoyV5-6" value="data Injection" style="ellipse;whiteSpace=wrap;html=1;fontFamily=Verdana;rounded=0;shadow=0;comic=0;labelBackgroundColor=none;strokeWidth=2;" vertex="1" parent="1">
          <mxGeometry x="207" y="940" width="80" height="80" as="geometry" />
        </mxCell>
        <mxCell id="_X_2YBjXSHw5JZLLoyV5-7" value="" style="edgeStyle=orthogonalEdgeStyle;rounded=1;orthogonalLoop=1;jettySize=auto;html=1;curved=0;exitX=1;exitY=0.5;exitDx=0;exitDy=0;" edge="1" parent="1" source="_X_2YBjXSHw5JZLLoyV5-6" target="_X_2YBjXSHw5JZLLoyV5-2">
          <mxGeometry relative="1" as="geometry">
            <mxPoint x="387" y="980" as="sourcePoint" />
            <mxPoint x="335.99" y="1050" as="targetPoint" />
          </mxGeometry>
        </mxCell>
        <mxCell id="_X_2YBjXSHw5JZLLoyV5-8" style="edgeStyle=orthogonalEdgeStyle;html=1;labelBackgroundColor=none;startFill=0;startSize=8;endFill=1;endSize=8;fontFamily=Verdana;fontSize=12;exitX=0.495;exitY=1.036;exitDx=0;exitDy=0;entryX=0;entryY=0.5;entryDx=0;entryDy=0;exitPerimeter=0;" edge="1" parent="1" source="_X_2YBjXSHw5JZLLoyV5-2" target="_X_2YBjXSHw5JZLLoyV5-10">
          <mxGeometry relative="1" as="geometry">
            <mxPoint x="407.99" y="1153" as="sourcePoint" />
            <mxPoint x="455.99" y="1195" as="targetPoint" />
          </mxGeometry>
        </mxCell>
        <mxCell id="_X_2YBjXSHw5JZLLoyV5-9" value="" style="edgeStyle=orthogonalEdgeStyle;rounded=1;orthogonalLoop=1;jettySize=auto;html=1;entryX=0.479;entryY=1.086;entryDx=0;entryDy=0;entryPerimeter=0;curved=0;exitX=1;exitY=0.5;exitDx=0;exitDy=0;" edge="1" parent="1" source="_X_2YBjXSHw5JZLLoyV5-10" target="_X_2YBjXSHw5JZLLoyV5-5">
          <mxGeometry relative="1" as="geometry">
            <mxPoint x="685.99" y="1115" as="targetPoint" />
          </mxGeometry>
        </mxCell>
        <mxCell id="_X_2YBjXSHw5JZLLoyV5-10" value="data processing" style="ellipse;whiteSpace=wrap;html=1;aspect=fixed;" vertex="1" parent="1">
          <mxGeometry x="477" y="1050" width="80" height="80" as="geometry" />
        </mxCell>
        <mxCell id="_X_2YBjXSHw5JZLLoyV5-11" value="&lt;div&gt;ERDDAP ISMAR Endpoint&lt;/div&gt;" style="whiteSpace=wrap;html=1;rounded=0;shadow=0;comic=0;labelBackgroundColor=none;strokeWidth=1;fontFamily=Verdana;fontSize=12;align=center;" vertex="1" parent="1">
          <mxGeometry x="717" y="955" width="120" height="50" as="geometry" />
        </mxCell>
        <mxCell id="_X_2YBjXSHw5JZLLoyV5-12" value="" style="edgeStyle=orthogonalEdgeStyle;rounded=1;orthogonalLoop=1;jettySize=auto;html=1;entryX=0;entryY=0.5;entryDx=0;entryDy=0;curved=0;" edge="1" parent="1" source="_X_2YBjXSHw5JZLLoyV5-5" target="_X_2YBjXSHw5JZLLoyV5-11">
          <mxGeometry relative="1" as="geometry">
            <mxPoint x="638.99" y="1125" as="sourcePoint" />
            <mxPoint x="680.99" y="1019" as="targetPoint" />
          </mxGeometry>
        </mxCell>
        <mxCell id="_X_2YBjXSHw5JZLLoyV5-13" value="" style="edgeStyle=orthogonalEdgeStyle;rounded=1;orthogonalLoop=1;jettySize=auto;html=1;entryX=0.5;entryY=0;entryDx=0;entryDy=0;curved=0;exitX=0.5;exitY=1;exitDx=0;exitDy=0;" edge="1" parent="1" source="_X_2YBjXSHw5JZLLoyV5-11" target="_X_2YBjXSHw5JZLLoyV5-14">
          <mxGeometry relative="1" as="geometry">
            <mxPoint x="797" y="1015" as="sourcePoint" />
            <mxPoint x="797" y="1085" as="targetPoint" />
          </mxGeometry>
        </mxCell>
        <mxCell id="_X_2YBjXSHw5JZLLoyV5-14" value="Output Data check" style="ellipse;whiteSpace=wrap;html=1;aspect=fixed;flipV=0;" vertex="1" parent="1">
          <mxGeometry x="737" y="1050" width="80" height="80" as="geometry" />
        </mxCell>
        <mxCell id="_X_2YBjXSHw5JZLLoyV5-15" value="" style="edgeStyle=orthogonalEdgeStyle;rounded=1;orthogonalLoop=1;jettySize=auto;html=1;curved=0;exitX=1;exitY=0.5;exitDx=0;exitDy=0;entryX=1;entryY=0.5;entryDx=0;entryDy=0;" edge="1" parent="1" source="_X_2YBjXSHw5JZLLoyV5-14" target="_X_2YBjXSHw5JZLLoyV5-11">
          <mxGeometry relative="1" as="geometry">
            <mxPoint x="807" y="1025" as="sourcePoint" />
            <mxPoint x="857" y="990" as="targetPoint" />
            <Array as="points">
              <mxPoint x="857" y="1090" />
              <mxPoint x="857" y="980" />
            </Array>
          </mxGeometry>
        </mxCell>
        <mxCell id="_X_2YBjXSHw5JZLLoyV5-16" value="" style="edgeStyle=orthogonalEdgeStyle;rounded=1;orthogonalLoop=1;jettySize=auto;html=1;curved=0;exitX=1;exitY=0.5;exitDx=0;exitDy=0;entryX=0.5;entryY=0;entryDx=0;entryDy=0;" edge="1" parent="1" source="_X_2YBjXSHw5JZLLoyV5-14" target="_X_2YBjXSHw5JZLLoyV5-17">
          <mxGeometry relative="1" as="geometry">
            <mxPoint x="837" y="1015" as="sourcePoint" />
            <mxPoint x="847" y="1170" as="targetPoint" />
            <Array as="points">
              <mxPoint x="877" y="1090" />
              <mxPoint x="877" y="985" />
              <mxPoint x="977" y="985" />
            </Array>
          </mxGeometry>
        </mxCell>
        <mxCell id="_X_2YBjXSHw5JZLLoyV5-17" value="&lt;div&gt;Marine Data store&lt;/div&gt;" style="whiteSpace=wrap;html=1;rounded=0;shadow=0;comic=0;labelBackgroundColor=none;strokeWidth=1;fontFamily=Verdana;fontSize=12;align=center;flipV=0;" vertex="1" parent="1">
          <mxGeometry x="917" y="1005" width="120" height="50" as="geometry" />
        </mxCell>
        <mxCell id="_X_2YBjXSHw5JZLLoyV5-18" value="&lt;div&gt;Existing product/data&lt;/div&gt;" style="whiteSpace=wrap;html=1;rounded=0;shadow=0;comic=0;labelBackgroundColor=none;strokeWidth=1;fontFamily=Verdana;fontSize=12;align=center;dashed=1;" vertex="1" parent="1">
          <mxGeometry x="44" y="1238" width="120" height="50" as="geometry" />
        </mxCell>
        <mxCell id="_X_2YBjXSHw5JZLLoyV5-19" style="edgeStyle=orthogonalEdgeStyle;html=1;labelBackgroundColor=none;startFill=0;startSize=8;endFill=1;endSize=8;fontFamily=Verdana;fontSize=12;exitX=0.5;exitY=1;exitDx=0;exitDy=0;entryX=0.5;entryY=0;entryDx=0;entryDy=0;dashed=1;" edge="1" parent="1" source="_X_2YBjXSHw5JZLLoyV5-18" target="WRyVgkNERUNQOaYfWy6F-100">
          <mxGeometry relative="1" as="geometry">
            <mxPoint x="110" y="1350" as="targetPoint" />
            <mxPoint x="174" y="1408" as="sourcePoint" />
          </mxGeometry>
        </mxCell>
      </root>
    </mxGraphModel>
  </diagram>
</mxfile>
